<svg xmlns="http://www.w3.org/2000/svg" viewBox="0 0 800 450" width="800" height="450" role="img" aria-label="Digital scoreboard detail">
  <defs>
    <linearGradient id="bg" x1="0" y1="0" x2="1" y2="1">
      <stop offset="0%" stop-color="#0a1820"/>
      <stop offset="100%" stop-color="#0b2430"/>
    </linearGradient>
  </defs>
  <rect width="800" height="450" fill="url(#bg)"/>
  <g fill="#22d3ee">
    <rect x="120" y="140" width="80" height="16" rx="2" opacity="0.85"/>
    <rect x="220" y="140" width="120" height="16" rx="2" opacity="0.6"/>
    <rect x="360" y="140" width="80" height="16" rx="2" opacity="0.85"/>
    <rect x="460" y="140" width="120" height="16" rx="2" opacity="0.6"/>
    <rect x="600" y="140" width="80" height="16" rx="2" opacity="0.85"/>
  </g>
  <g fill="#a7f3d0">
    <rect x="160" y="190" width="120" height="10" rx="2"/>
    <rect x="300" y="190" width="220" height="10" rx="2"/>
    <rect x="540" y="190" width="100" height="10" rx="2"/>
  </g>
  <g fill="#fca5a5">
    <rect x="200" y="230" width="60" height="12" rx="2"/>
    <rect x="280" y="230" width="60" height="12" rx="2"/>
    <rect x="360" y="230" width="60" height="12" rx="2"/>
    <rect x="440" y="230" width="60" height="12" rx="2"/>
    <rect x="520" y="230" width="60" height="12" rx="2"/>
  </g>
</svg>
